<?xml version="1.0" encoding="UTF-8" standalone="no"?>
<svg
   xmlns:dc="http://purl.org/dc/elements/1.1/"
   xmlns:cc="http://creativecommons.org/ns#"
   xmlns:rdf="http://www.w3.org/1999/02/22-rdf-syntax-ns#"
   xmlns:svg="http://www.w3.org/2000/svg"
   xmlns="http://www.w3.org/2000/svg"
   xmlns:xlink="http://www.w3.org/1999/xlink"
   xmlns:sodipodi="http://sodipodi.sourceforge.net/DTD/sodipodi-0.dtd"
   xmlns:inkscape="http://www.inkscape.org/namespaces/inkscape"
   enable-background="new 0 0 32 32"
   height="39.214119"
   id="Layer_1"
   version="1.0"
   viewBox="0 0 400 39.214119"
   width="400"
   xml:space="preserve"
   inkscape:version="0.91 r13725"
   sodipodi:docname="1474384017_google-play (copie).svg"><metadata
     id="metadata34"><rdf:RDF><cc:Work
         rdf:about=""><dc:format>image/svg+xml</dc:format><dc:type
           rdf:resource="http://purl.org/dc/dcmitype/StillImage" /><dc:title></dc:title></cc:Work></rdf:RDF></metadata><defs
     id="defs32" /><sodipodi:namedview
     pagecolor="#ffffff"
     bordercolor="#666666"
     borderopacity="1"
     objecttolerance="10"
     gridtolerance="10"
     guidetolerance="10"
     inkscape:pageopacity="0"
     inkscape:pageshadow="2"
     inkscape:window-width="1366"
     inkscape:window-height="671"
     id="namedview30"
     showgrid="false"
     fit-margin-top="0"
     fit-margin-left="0"
     fit-margin-right="0"
     fit-margin-bottom="0"
     inkscape:zoom="0.921875"
     inkscape:cx="254.28417"
     inkscape:cy="-40.77744"
     inkscape:window-x="0"
     inkscape:window-y="27"
     inkscape:window-maximized="1"
     inkscape:current-layer="Layer_1" /><g
     id="g18"
     transform="translate(-144.10169,65.798432)" /><g
     id="g20"
     transform="translate(-144.10169,65.798432)" /><g
     id="g22"
     transform="translate(-144.10169,65.798432)" /><g
     id="g24"
     transform="translate(-144.10169,65.798432)" /><g
     id="g26"
     transform="translate(-144.10169,65.798432)" /><g
     id="g28"
     transform="translate(-144.10169,65.798432)" /><g
     id="g4166"
     transform="matrix(1.2260494,0,0,1.2260494,-176.67579,71.8078)"
     inkscape:export-xdpi="90"
     inkscape:export-ydpi="90"><g
       transform="translate(142.10169,-58.576271)"
       id="PLAY"><defs
         id="defs4"><path
           inkscape:connector-curvature="0"
           id="SVGID_1_"
           d="m 23.028,11.518 -6.69,-3.862 c 0,0 -12.19,-7.04 -12.908,-7.453 C 2.715,-0.211 2,0.039 2,0.902 c 0,1.44 0,15.029 0,15.029 0,0 0,14.685 0,15.333 0,0.649 0.512,0.93 1.133,0.569 0.624,-0.359 13.205,-7.625 13.205,-7.625 l 6.69,-3.862 c 0,0 5.678,-3.278 6.433,-3.714 0.754,-0.435 0.683,-1.032 0.045,-1.376 -0.638,-0.344 -6.478,-3.738 -6.478,-3.738 z" /></defs><clipPath
         id="SVGID_2_"><use
           height="100%"
           width="100%"
           y="0"
           x="0"
           style="overflow:visible"
           id="use8"
           xlink:href="#SVGID_1_"
           overflow="visible" /></clipPath><polygon
         style="fill:#2cafa2"
         id="polygon10"
         points="2,15.932 2,32.367 18.577,15.932 2,-0.504 "
         clip-path="url(#SVGID_2_)" /><polygon
         style="fill:#77e888"
         id="polygon12"
         points="23.028,11.518 16.338,7.655 2,-0.624 2,-0.504 18.577,15.932 "
         clip-path="url(#SVGID_2_)" /><polygon
         style="fill:#cc3a72"
         id="polygon14"
         points="2,32.367 2,32.487 16.338,24.209 23.028,20.347 18.577,15.932 "
         clip-path="url(#SVGID_2_)" /><polygon
         style="fill:#ea9053"
         id="polygon16"
         points="18.577,15.932 23.028,20.347 30.676,15.932 23.028,11.518 "
         clip-path="url(#SVGID_2_)" /></g><text
       sodipodi:linespacing="125%"
       id="text4162"
       y="-32.94104"
       x="182.5808"
       style="font-style:normal;font-weight:normal;font-size:29.70947647px;line-height:125%;font-family:sans-serif;letter-spacing:0px;word-spacing:0px;fill:#000000;fill-opacity:1;stroke:none;stroke-width:1px;stroke-linecap:butt;stroke-linejoin:miter;stroke-opacity:1"
       xml:space="preserve"><tspan
         style="font-style:normal;font-variant:normal;font-weight:300;font-stretch:normal;font-size:29.70947647px;line-height:125%;font-family:'Alegreya Sans';-inkscape-font-specification:'Alegreya Sans, Light';text-align:start;writing-mode:lr-tb;text-anchor:start"
         y="-32.94104"
         x="182.5808"
         id="tspan4164"
         sodipodi:role="line">IRGIB Africa sur play store</tspan></text>
</g></svg>