<?xml version="1.0" encoding="UTF-8" standalone="no"?>
<!-- Generator: Adobe Illustrator 16.0.0, SVG Export Plug-In . SVG Version: 6.00 Build 0)  -->

<svg
   xmlns:dc="http://purl.org/dc/elements/1.1/"
   xmlns:cc="http://creativecommons.org/ns#"
   xmlns:rdf="http://www.w3.org/1999/02/22-rdf-syntax-ns#"
   xmlns:svg="http://www.w3.org/2000/svg"
   xmlns="http://www.w3.org/2000/svg"
   xmlns:sodipodi="http://sodipodi.sourceforge.net/DTD/sodipodi-0.dtd"
   xmlns:inkscape="http://www.inkscape.org/namespaces/inkscape"
   version="1.1"
   id="Capa_1"
   x="0px"
   y="0px"
   width="31.32839"
   height="35"
   viewBox="0 0 31.32839 35"
   xml:space="preserve"
   inkscape:version="0.91 r13725"
   sodipodi:docname="login.svg"><metadata
     id="metadata45"><rdf:RDF><cc:Work
         rdf:about=""><dc:format>image/svg+xml</dc:format><dc:type
           rdf:resource="http://purl.org/dc/dcmitype/StillImage" /><dc:title></dc:title></cc:Work></rdf:RDF></metadata><defs
     id="defs43" /><sodipodi:namedview
     pagecolor="#ffffff"
     bordercolor="#666666"
     borderopacity="1"
     objecttolerance="10"
     gridtolerance="10"
     guidetolerance="10"
     inkscape:pageopacity="0"
     inkscape:pageshadow="2"
     inkscape:window-width="1366"
     inkscape:window-height="704"
     id="namedview41"
     showgrid="false"
     inkscape:zoom="0.34517003"
     inkscape:cx="-209.68938"
     inkscape:cy="330.27201"
     inkscape:window-x="0"
     inkscape:window-y="27"
     inkscape:window-maximized="1"
     inkscape:current-layer="Capa_1"
     fit-margin-top="0"
     fit-margin-left="0"
     fit-margin-right="0"
     fit-margin-bottom="0" /><g
     id="g3"
     style="fill:#ffffff"
     transform="matrix(0.05119047,0,0,0.05119047,-1.8357926,0)"><g
       id="g5"
       style="fill:#ffffff"><path
         d="m 646.019,604.816 0,-531.831 C 646.019,32.057 613.119,0 571.118,0 L 213.643,0 c -42.417,0 -78.251,33.42 -78.251,72.981 l 0,156.369 c 0,4.777 3.877,8.655 8.654,8.655 l 38.946,0 c 4.777,0 8.655,-3.877 8.655,-8.655 l 0,-156.369 c 0,-6.82 8.568,-16.726 21.996,-16.726 l 357.469,0 c 13.684,0 18.646,10.005 18.646,16.726 l 0,537.699 c 0,6.746 -4.963,16.787 -18.646,16.787 l -357.469,0 c -13.428,0 -21.996,-9.941 -21.996,-16.787 l 0,-151.98 c 0,-4.777 -3.877,-8.654 -8.655,-8.654 l -38.946,0 c -4.777,0 -8.654,3.877 -8.654,8.654 l 0,151.98 c 0,39.596 35.834,73.041 78.251,73.041 l 357.469,0 c 43.399,0 76.396,-31.594 76.746,-73.49 0.022,-1.969 -0.636,-3.877 -1.839,-5.415 z m -74.902,61.596 -357.474,0 c -33.035,0 -60.942,-25.523 -60.942,-55.732 l 0,-143.326 21.637,0 0,143.326 c 0,16.467 15.795,34.096 39.306,34.096 l 357.469,0 c 22.507,0 35.956,-17.336 35.956,-34.096 l 0,-537.699 C 607.073,56.252 593.624,38.946 571.118,38.946 l -357.475,0 c -23.511,0 -39.306,17.599 -39.306,34.035 l 0,147.714 -21.637,0 0,-147.714 c 0,-30.175 27.907,-55.671 60.942,-55.671 l 357.469,0 c 32.3,0 57.598,24.454 57.598,55.671 l 0,537.175 c 0,1.861 0.588,3.588 1.588,4.998 -2.76,29.557 -27.361,51.258 -59.18,51.258 z"
         id="path7"
         style="fill:#ffffff"
         inkscape:connector-curvature="0" /><path
         d="m 226.266,540.996 c 0,3.416 2.004,6.504 5.12,7.898 1.133,0.51 2.341,0.758 3.535,0.758 2.086,0 4.146,-0.754 5.769,-2.199 L 463.825,348.287 c 1.839,-1.641 2.891,-3.99 2.891,-6.457 0,-2.466 -1.052,-4.816 -2.891,-6.456 L 240.685,136.207 c -2.549,-2.271 -6.188,-2.843 -9.299,-1.441 -3.116,1.394 -5.12,4.488 -5.12,7.897 l 0,103.995 -181.749,0 c -4.777,0 -8.655,3.877 -8.655,8.655 l 0,181.749 c 0,4.777 3.877,8.654 8.655,8.654 l 181.749,0 0,95.28 z M 53.172,428.408 l 0,-164.44 181.748,0 c 4.777,0 8.655,-3.877 8.655,-8.654 l 0,-93.324 201.485,179.84 -201.485,179.842 0,-84.609 c 0,-4.777 -3.877,-8.654 -8.655,-8.654 l -181.748,0 z"
         id="path9"
         style="fill:#ffffff"
         inkscape:connector-curvature="0" /></g></g><g
     id="g11"
     transform="translate(-35.862,-648.721)" /><g
     id="g13"
     transform="translate(-35.862,-648.721)" /><g
     id="g15"
     transform="translate(-35.862,-648.721)" /><g
     id="g17"
     transform="translate(-35.862,-648.721)" /><g
     id="g19"
     transform="translate(-35.862,-648.721)" /><g
     id="g21"
     transform="translate(-35.862,-648.721)" /><g
     id="g23"
     transform="translate(-35.862,-648.721)" /><g
     id="g25"
     transform="translate(-35.862,-648.721)" /><g
     id="g27"
     transform="translate(-35.862,-648.721)" /><g
     id="g29"
     transform="translate(-35.862,-648.721)" /><g
     id="g31"
     transform="translate(-35.862,-648.721)" /><g
     id="g33"
     transform="translate(-35.862,-648.721)" /><g
     id="g35"
     transform="translate(-35.862,-648.721)" /><g
     id="g37"
     transform="translate(-35.862,-648.721)" /><g
     id="g39"
     transform="translate(-35.862,-648.721)" /></svg>